# xmcd CD database file
#
# Track frame offsets:
#	150
#	25497
#	46963
#	66645
#	89788
#	118867
#	141082
#	166176
#	187639
#	208272
#	231131
#	253359
#	276285
#	295447
#	317911
#
# Disc length: 4532 seconds
#
# Revision: 0
# Processed by: cddbd v1.5.1PL0 Copyright (c) Steve Scherf et al.
# Submitted via: CDex 1.51
#
DISCID=f311b20f
DTITLE=Grupo Galé - Los 30 Mejores
DYEAR=2004
DGENRE=Salsa
TTITLE0=Ven a Medellín
TTITLE1=Beso a Beso
TTITLE2=Mi Vecina
TTITLE3=Ya No Te Puedo Amar
TTITLE4=Trbuto al Gran Combo
TTITLE5=Soy Como Soy
TTITLE6=Volver, Volver
TTITLE7=Perdóname
TTITLE8=Fantasía
TTITLE9=20 de Julio
TTITLE10=Eres Así
TTITLE11=Cali ¡Ae!
TTITLE12=Cualquiera Puede
TTITLE13=Para Siempre
TTITLE14=No La Descuides
EXTD=YEAR: 2004
EXTT0=
EXTT1=
EXTT2=
EXTT3=
EXTT4=
EXTT5=
EXTT6=
EXTT7=
EXTT8=
EXTT9=
EXTT10=
EXTT11=
EXTT12=
EXTT13=
EXTT14=
PLAYORDER=
